<?xml version="1.0" encoding="UTF-8"?>
<svg width="169px" height="35px" viewBox="0 0 169 35" version="1.1" xmlns="http://www.w3.org/2000/svg" xmlns:xlink="http://www.w3.org/1999/xlink">
    <!-- Generator: Sketch 51.2 (57519) - http://www.bohemiancoding.com/sketch -->
    <title>Artboard</title>
    <desc>Created with Sketch.</desc>
    <defs></defs>
    <g id="Artboard" stroke="none" stroke-width="1" fill="none" fill-rule="evenodd">
        <g id="alivee">
            <path d="M34.4861244,29.58375 C36.0748802,29.58375 37.1035476,28.8370833 38.3184785,27.62375 L38.3184785,23.5631019 C33.4113779,24.2164352 31.8226221,25.6164352 31.8226221,27.3904167 C31.8226221,28.88375 32.8506406,29.58375 34.4861244,29.58375 M38.3184785,19.4564352 C38.1776452,17.4031019 37.1496267,16.095787 34.6730369,16.095787 C32.7104562,16.095787 30.7478756,16.8897685 28.5042773,18.1964352 L26.0744155,13.6691204 C29.0189355,11.895787 32.3366313,10.635787 35.981424,10.635787 C41.916543,10.635787 45.1881598,13.995787 45.1881598,21.0897685 L45.1881598,34.3443981 L42.0177873,34.3443981 C40.5951759,34.3443981 39.365967,33.3527315 39.0661283,31.96375 L38.9259439,31.96375 C36.9627143,33.6904167 34.7664931,34.9043981 32.1497189,34.9043981 C27.9435399,34.9043981 25.2800376,31.8243981 25.2800376,27.90375 C25.2800376,23.0497685 29.1591198,20.3897685 38.3184785,19.4564352" id="Fill-1" fill="#3134C8"></path>
            <path d="M50.8401194,1.6279537 L57.7098007,1.6279537 L57.7098007,27.437213 C57.7098007,28.8838796 58.3639942,29.3505463 58.9253806,29.3505463 C59.2051002,29.3505463 59.3920127,29.3505463 59.7658376,29.257213 L60.6069435,34.3445278 C59.8592938,34.6705463 58.691091,34.9045278 57.1490634,34.9045278 C52.4288752,34.9045278 50.8401194,31.8238796 50.8401194,27.157213 L50.8401194,1.6279537 Z" id="Fill-3" fill="#3134C8"></path>
            <path d="M63.9701344,34.3443981 L70.8398157,34.3443981 L70.8398157,11.195787 L63.9701344,11.195787 L63.9701344,34.3443981 Z M63.4100461,4.19513889 C63.4100461,2.09449074 65.0922581,0.647824074 67.3819355,0.647824074 C69.718341,0.647824074 71.3544739,2.09449074 71.3544739,4.19513889 C71.3544739,6.29513889 69.718341,7.78847222 67.3819355,7.78847222 C65.0922581,7.78847222 63.4100461,6.29513889 63.4100461,4.19513889 Z" id="Fill-6" fill="#3134C8"></path>
            <path d="M74.1566678,11.1957222 L81.0730772,11.1957222 L84.0636763,22.1163704 C84.6711417,24.403037 85.2786071,26.8303519 85.8860726,29.2570185 L86.072985,29.2570185 C86.6343714,26.8303519 87.2418368,24.403037 87.8493022,22.1163704 L90.8866294,11.1957222 L97.475942,11.1957222 L89.9053391,34.3443333 L81.9609113,34.3443333 L74.1566678,11.1957222 Z" id="Fill-8" fill="#3134C8"></path>
            <path d="M114.063902,20.3897685 C114.063902,17.7297685 112.942427,15.8624537 110.18482,15.8624537 C108.035327,15.8624537 106.166202,17.3097685 105.698921,20.3897685 L114.063902,20.3897685 Z M110.045285,10.635787 C116.633948,10.635787 119.904916,15.4424537 119.904916,21.7431019 C119.904916,22.9564352 119.765381,24.0764352 119.625196,24.6364352 L105.745649,24.6364352 C106.353115,28.1370833 108.68952,29.6770833 111.774225,29.6770833 C113.503165,29.6770833 115.091921,29.16375 116.774132,28.1370833 L119.064459,32.2904167 C116.680676,33.9243981 113.596621,34.9043981 110.839662,34.9043981 C104.203622,34.9043981 99.1096087,30.42375 99.1096087,22.7697685 C99.1096087,15.255787 104.48399,10.635787 110.045285,10.635787 Z" id="Fill-9" fill="#3134C8"></path>
            <path d="M138.035163,20.3897685 C138.035163,17.7297685 136.913689,15.8624537 134.156081,15.8624537 C132.006588,15.8624537 130.137464,17.3097685 129.670182,20.3897685 L138.035163,20.3897685 Z M134.016546,10.635787 C140.605209,10.635787 143.876177,15.4424537 143.876177,21.7431019 C143.876177,22.9564352 143.736642,24.0764352 143.596457,24.6364352 L129.716911,24.6364352 C130.324376,28.1370833 132.660781,29.6770833 135.745486,29.6770833 C137.474426,29.6770833 139.063182,29.16375 140.745394,28.1370833 L143.03572,32.2904167 C140.651937,33.9243981 137.567882,34.9043981 134.810924,34.9043981 C128.174883,34.9043981 123.08087,30.42375 123.08087,22.7697685 C123.08087,15.255787 128.455252,10.635787 134.016546,10.635787 Z" id="Fill-10" fill="#3134C8"></path>
            <polygon id="Fill-11" fill="#F99B23" points="0 20.3895741 21.4968779 12.1289259 21.4968779 17.7762407 13.2720814 20.4829074 6.96313748 22.6762407 6.96313748 22.8629074 13.2720814 25.0568889 21.4968779 27.7635556 21.4968779 33.4108704 0 25.1502222"></polygon>
            <polygon id="Fill-12" fill="#F99B23" points="168.455163 25.1500278 146.958285 33.4106759 146.958285 27.7640093 155.183082 25.0566944 161.492026 22.8633611 161.492026 22.6766944 155.183082 20.482713 146.958285 17.7760463 146.958285 12.1293796 168.455163 20.3893796"></polygon>
        </g>
    </g>
</svg>